<svg width="45" height="78" viewBox="0 0 45 78" fill="none" xmlns="http://www.w3.org/2000/svg">
<path d="M14.7388 77.4688C13.237 77.375 12.1616 75.9726 12.4699 74.4842L18.0302 47.5215L3.01236 46.5838C-0.76356 46.348 1.79733 43.2772 1.89119 43.1539C7.89509 33.9229 16.8889 20.2696 28.7948 2.0598C29.1145 1.58242 29.59 1.23082 30.1401 1.06504C30.6902 0.899264 31.2808 0.929585 31.8111 1.15083C32.3413 1.37207 32.7783 1.77051 33.0475 2.27812C33.3166 2.78573 33.4012 3.37103 33.2868 3.93408L27.7265 30.8967L42.7872 31.8372C44.5036 31.9443 45.3966 32.8185 44.3267 34.7763C28.6721 58.5241 19.5791 72.3866 16.9619 76.3584C16.4846 77.104 15.6399 77.5251 14.7388 77.4688Z" fill="url(#paint0_linear_1_6)"/>
<path d="M14.7388 77.4688C13.237 77.375 12.1616 75.9726 12.4699 74.4842L18.0302 47.5215L3.01236 46.5838C-0.76356 46.348 1.79733 43.2772 1.89119 43.1539C7.89509 33.9229 16.8889 20.2696 28.7948 2.0598C29.1145 1.58242 29.59 1.23082 30.1401 1.06504C30.6902 0.899264 31.2808 0.929585 31.8111 1.15083C32.3413 1.37207 32.7783 1.77051 33.0475 2.27812C33.3166 2.78573 33.4012 3.37103 33.2868 3.93408L27.7265 30.8967L42.7872 31.8372C44.5036 31.9443 45.3966 32.8185 44.3267 34.7763C28.6721 58.5241 19.5791 72.3866 16.9619 76.3584C16.4846 77.104 15.6399 77.5251 14.7388 77.4688Z" fill="url(#paint1_linear_1_6)"/>
<defs>
<linearGradient id="paint0_linear_1_6" x1="22.945" y1="10.8405" x2="6.45381" y2="115.608" gradientUnits="userSpaceOnUse">
<stop stop-color="#00EBFE"/>
<stop offset="0.572986" stop-color="#0077B6"/>
</linearGradient>
<linearGradient id="paint1_linear_1_6" x1="-37.2529" y1="164.986" x2="96.3134" y2="151.933" gradientUnits="userSpaceOnUse">
<stop stop-color="#EFD964"/>
<stop offset="1" stop-color="#FBD570"/>
</linearGradient>
</defs>
</svg>
