<svg width="1176" height="1694" viewBox="0 0 1176 1694" fill="none" xmlns="http://www.w3.org/2000/svg">
<path d="M1194.15 222.879C1175.59 225.586 1138.89 223.305 1126.71 225.022M1126.71 225.022C1134.72 269.091 1143.68 325.937 1145.45 391.126C1147.22 456.315 1148.56 470.219 1143.52 492.398C1135.06 546.247 1133.46 550.06 1130.07 561.291M1126.71 225.022L1009.78 251.064M1130.07 561.291C1129.26 567.27 1197.05 891.073 1197.05 891.073L1252.17 1145.32L1256 1206.23M1130.07 561.291C1089.39 539.486 1063.62 503.867 1027.89 455.88M1154.8 1388.05L1205.71 1349.22L1232.77 1308.18M1066.02 919.052L1103.42 966.98L1101.39 1066.77L999.693 1165.26L871.132 1006.3L759.285 868.012M1066.02 919.052L1063.03 871.518L1051.26 684.355C1049.65 669.393 1031.55 592.028 1029.49 564.487C1027.43 536.947 1023.9 522.837 1022.3 450.11M1066.02 919.052L891.912 707.28M1022.3 450.11L1009.78 251.064M1022.3 450.11L1027.89 455.88M1009.78 251.064C999.068 269.265 937.289 342.671 937.289 342.671M1009.78 251.064L740.833 -66.3471M937.289 342.671L1027.89 455.88M937.289 342.671L884.404 406.693M764.313 552.077L635.867 715.416M764.313 552.077L891.912 707.28M764.313 552.077L642.187 401.165M764.313 552.077L850.801 447.374M635.867 715.416L759.285 868.012M635.867 715.416L454.92 948.89M635.867 715.416L511.093 560.123M891.912 707.28L759.285 868.012M759.285 868.012L638.951 1031.29L454.92 948.89M454.92 948.89L344.564 758.906L511.093 560.123M511.093 560.123L642.187 401.165M511.093 560.123L374.768 409.663M642.187 401.165L723.023 291.432M642.187 401.165L502.156 267.195M723.023 291.432L850.801 447.374M723.023 291.432L746.097 262.42M850.801 447.374L884.404 406.693M884.404 406.693L746.097 262.42M746.097 262.42L616.248 120.684M616.248 120.684L502.156 267.195M616.248 120.684L740.833 -66.3471M502.156 267.195L374.768 409.663M374.768 409.663L345.435 452.27M740.833 -66.3471L643.776 -195.689L749.396 -344.948L867.414 -202.796M1199.6 215.264C1207.97 327.104 1211.3 381.95 1215.67 470.756L1318.4 897.636L1391.36 1152.81L1311.76 1244.64M1311.76 1244.64L1256 1206.23M1311.76 1244.64L1259.83 1267.13L1256 1206.23M1008.09 140.977L1054.46 -263.851L986.891 -339.1L867.414 -202.796M823.164 -152.313L867.414 -202.796" stroke="url(#paint0_linear_6_148)" stroke-opacity="0.3" stroke-width="6.57672"/>
<path d="M1163.22 226.89L1166.67 356.023M1145.51 392.385L1103.69 402.398M1128.15 547.526L1103.69 402.398M1148.52 678.592L1197.14 660.562L1211.96 810.585L1122.52 876.724L1068.32 578.268M913.994 381.911L950.472 432.859L1000.35 425.767L1012.21 732.522M1087.5 465.715L1089.46 458.04M1103.69 402.398L1089.46 458.04M1079.98 244.961L1089.34 348.982L1058.42 446.799L1089.46 458.04M959.494 301.953L856.717 193.45L823.171 248.387L913.871 356.709M889.798 373.148L834.315 304.835M969.364 674.504L920.949 734.538M969.364 674.504L1055.05 790.54M969.364 674.504L893.615 577.887M934.259 410.215L834.203 529.115M916.181 500.105L816.124 619.004M1040.6 260.05L1047.3 312.791M1104.41 1044.17L1057.86 991.674M879.396 880.915L918.215 834.178L1011.31 939.175M879.396 880.915L980.208 999.189M879.396 880.915C814.792 840.746 819.533 893.928 824.241 879.808M879.396 880.915L728.872 1080.65M980.208 999.189L1011.31 939.175M980.208 999.189L950.613 1038.79M1011.31 939.175L1057.86 991.674M1057.86 991.674L993.564 1096.27L950.613 1038.79M950.613 1038.79L891.49 967.058L918.601 926.911M710.736 635.343C713.664 641.435 757.864 696.437 779.598 723.177L720.015 804.323L666.579 743.041L756.957 620.636M805.297 380.28L771.71 426.816M771.71 426.816L813.65 442.006L774.438 490.698L695.897 399.359L771.71 426.816ZM771.71 426.816L727.519 362.593M733.817 580.809L653.271 490.84M653.271 490.84L600.491 563.968L678.974 560.946M653.271 490.84L634.184 456.673L558.552 548.779L627.332 619.811L678.974 560.946M653.271 490.84L678.974 560.946M653.271 490.84L676.041 455.061M678.974 560.946L727.823 507.358C765.093 435.963 806.703 408.152 765.164 290.272M809.634 31.7428C781.075 54.1016 766.009 71.6833 742.853 122.861L711.607 71.7121C698.069 55.3641 692.476 45.1505 771.542 -19.7892L809.634 31.7428ZM809.634 31.7428C750.014 193.966 743.171 246.374 765.164 290.272M765.164 290.272C706.147 299.087 663.351 274.363 649.33 260.899L708.046 166.859L696.279 147.923L640.749 234.73L576.063 177.759L496.596 -20.835L611.768 -94.4272M611.768 -94.4272L661.527 -126.721M611.768 -94.4272L577.648 -157.1L614.068 -200.513L661.527 -126.721M661.527 -126.721C661.527 -126.721 704.252 -115.44 700.486 -62.2957C696.72 -9.15186 651.678 -0.307697 651.678 -0.307697C634.873 -5.3273 633.193 -24.7665 661.527 -126.721ZM956.035 -76.6611L868.179 67.6215L645.895 -195.276L656.629 -222.835L1044.14 242.463L1199.06 229.388L1139.43 -110.869L1106.47 -101.844L1018.02 251.871M1139.48 -265.99L1047.55 -213.329L1018.8 -165.04L991.783 -202.779M991.783 -202.779L974.219 -227.309L993.371 -262.302L1013.2 -240.444L991.783 -202.779ZM915.281 -261.234C915.281 -261.234 906.266 -293.849 877.231 -304.365C848.196 -314.881 800.01 -290.404 800.01 -290.404L755.114 -333.918C755.114 -333.918 745.272 -371.026 775.486 -366.372C805.7 -361.719 886.845 -231.7 886.845 -231.7M505.574 416.383L484.56 368.94M419.351 70.6865L303.556 181.79L369.356 302.058L503.475 151.469L473.015 96.412L396.081 169.178L484.56 368.94M419.351 70.6865L488.148 227.68L540.576 164.906L467.021 22.9615L419.351 70.6865ZM507.17 331.006L556.594 395.028L493.391 476.96L455.135 391.826M455.135 391.826L484.56 368.94M455.135 391.826L417.413 415.9L464.794 586.101M464.794 586.101L490.756 679.362L422.673 751.141L363.595 606.054L453.513 523.315L464.794 586.101ZM464.794 586.101L400.695 619.49L312.387 671.366L471.017 923.788L514.2 863.955L567.366 952.394M548.221 823.866L609.018 908.778L641.033 870.059L696.95 944.818" stroke="url(#paint1_linear_6_148)" stroke-opacity="0.3" stroke-width="2.63069"/>
<g filter="url(#filter0_i_6_148)">
<path d="M1296.8 671.462C1447.02 1210.51 1429.43 1126.42 1520.32 1372.34L1866.76 1497.81C1809.76 1350.61 1679.32 978.977 1672.86 926.206C1666.4 873.435 1653.82 424.175 1642.89 136.752L1635.07 -430.867L1141.52 -393.124C1197.62 3.64389 1226.42 215.009 1296.8 671.462Z" fill="#FFE040" fill-opacity="0.35"/>
</g>
<path d="M622.028 127.51L882.631 406.383L1008.68 252.873L1126.11 228.315L1139.34 300.194" stroke="#FFE040" stroke-opacity="0.2" stroke-width="2.63069"/>
<defs>
<filter id="filter0_i_6_148" x="1141.52" y="-430.867" width="725.243" height="1933.94" filterUnits="userSpaceOnUse" color-interpolation-filters="sRGB">
<feFlood flood-opacity="0" result="BackgroundImageFix"/>
<feBlend mode="normal" in="SourceGraphic" in2="BackgroundImageFix" result="shape"/>
<feColorMatrix in="SourceAlpha" type="matrix" values="0 0 0 0 0 0 0 0 0 0 0 0 0 0 0 0 0 0 127 0" result="hardAlpha"/>
<feOffset dy="5.26138"/>
<feGaussianBlur stdDeviation="2.63069"/>
<feComposite in2="hardAlpha" operator="arithmetic" k2="-1" k3="1"/>
<feColorMatrix type="matrix" values="0 0 0 0 0 0 0 0 0 0 0 0 0 0 0 0 0 0 0.25 0"/>
<feBlend mode="normal" in2="shape" result="effect1_innerShadow_6_148"/>
</filter>
<linearGradient id="paint0_linear_6_148" x1="1352.07" y1="528.19" x2="334.08" y2="592.212" gradientUnits="userSpaceOnUse">
<stop stop-color="#FFE040"/>
<stop offset="1" stop-color="#FFE040" stop-opacity="0"/>
</linearGradient>
<linearGradient id="paint1_linear_6_148" x1="1274.65" y1="498.905" x2="280.01" y2="298.865" gradientUnits="userSpaceOnUse">
<stop stop-color="#FFE040"/>
<stop offset="1" stop-color="#FFE040" stop-opacity="0"/>
</linearGradient>
</defs>
</svg>
