<svg width="193" height="97" viewBox="0 0 193 97" fill="none" xmlns="http://www.w3.org/2000/svg">
<g opacity="0.7" filter="url(#filter0_f_6_131)">
<path d="M40.497 60.5019C39.9725 60.4691 39.5969 59.9793 39.7045 59.4595L41.6466 50.0424L36.4014 49.7149C35.0826 49.6325 35.977 48.56 36.0098 48.5169C38.1067 45.2929 41.2479 40.5243 45.4062 34.1643C45.5179 33.9975 45.684 33.8747 45.8761 33.8168C46.0682 33.7589 46.2745 33.7695 46.4597 33.8468C46.6449 33.9241 46.7975 34.0632 46.8916 34.2405C46.9856 34.4178 47.0151 34.6222 46.9751 34.8189L45.0331 44.236L50.2933 44.5644C50.8927 44.6018 51.2047 44.9072 50.831 45.5909C45.3634 53.8852 42.1875 58.7269 41.2734 60.1141C41.1067 60.3745 40.8117 60.5216 40.497 60.5019Z" fill="url(#paint0_linear_6_131)"/>
<path d="M40.497 60.5019C39.9725 60.4691 39.5969 59.9793 39.7045 59.4595L41.6466 50.0424L36.4014 49.7149C35.0826 49.6325 35.977 48.56 36.0098 48.5169C38.1067 45.2929 41.2479 40.5243 45.4062 34.1643C45.5179 33.9975 45.684 33.8747 45.8761 33.8168C46.0682 33.7589 46.2745 33.7695 46.4597 33.8468C46.6449 33.9241 46.7975 34.0632 46.8916 34.2405C46.9856 34.4178 47.0151 34.6222 46.9751 34.8189L45.0331 44.236L50.2933 44.5644C50.8927 44.6018 51.2047 44.9072 50.831 45.5909C45.3634 53.8852 42.1875 58.7269 41.2734 60.1141C41.1067 60.3745 40.8117 60.5216 40.497 60.5019Z" fill="url(#paint1_linear_6_131)"/>
</g>
<g filter="url(#filter1_f_6_131)">
<path d="M40.497 60.5019C39.9725 60.4691 39.5969 59.9793 39.7045 59.4595L41.6466 50.0424L36.4014 49.7149C35.0826 49.6325 35.977 48.56 36.0098 48.5169C38.1067 45.2929 41.2479 40.5243 45.4062 34.1643C45.5179 33.9975 45.684 33.8747 45.8761 33.8168C46.0682 33.7589 46.2745 33.7695 46.4597 33.8468C46.6449 33.9241 46.7975 34.0632 46.8916 34.2405C46.9856 34.4178 47.0151 34.6222 46.9751 34.8189L45.0331 44.236L50.2933 44.5644C50.8927 44.6018 51.2047 44.9072 50.831 45.5909C45.3634 53.8852 42.1875 58.7269 41.2734 60.1141C41.1067 60.3745 40.8117 60.5216 40.497 60.5019Z" fill="url(#paint2_linear_6_131)"/>
<path d="M40.497 60.5019C39.9725 60.4691 39.5969 59.9793 39.7045 59.4595L41.6466 50.0424L36.4014 49.7149C35.0826 49.6325 35.977 48.56 36.0098 48.5169C38.1067 45.2929 41.2479 40.5243 45.4062 34.1643C45.5179 33.9975 45.684 33.8747 45.8761 33.8168C46.0682 33.7589 46.2745 33.7695 46.4597 33.8468C46.6449 33.9241 46.7975 34.0632 46.8916 34.2405C46.9856 34.4178 47.0151 34.6222 46.9751 34.8189L45.0331 44.236L50.2933 44.5644C50.8927 44.6018 51.2047 44.9072 50.831 45.5909C45.3634 53.8852 42.1875 58.7269 41.2734 60.1141C41.1067 60.3745 40.8117 60.5216 40.497 60.5019Z" fill="url(#paint3_linear_6_131)"/>
</g>
<path d="M40.497 60.5019C39.9725 60.4691 39.5969 59.9793 39.7045 59.4595L41.6466 50.0424L36.4014 49.7149C35.0826 49.6325 35.977 48.56 36.0098 48.5169C38.1067 45.2929 41.2479 40.5243 45.4062 34.1643C45.5179 33.9975 45.684 33.8747 45.8761 33.8168C46.0682 33.7589 46.2745 33.7695 46.4597 33.8468C46.6449 33.9241 46.7975 34.0632 46.8916 34.2405C46.9856 34.4178 47.0151 34.6222 46.9751 34.8189L45.0331 44.236L50.2933 44.5644C50.8927 44.6018 51.2047 44.9072 50.831 45.5909C45.3634 53.8852 42.1875 58.7269 41.2734 60.1141C41.1067 60.3745 40.8117 60.5216 40.497 60.5019Z" fill="url(#paint4_linear_6_131)"/>
<path d="M40.497 60.5019C39.9725 60.4691 39.5969 59.9793 39.7045 59.4595L41.6466 50.0424L36.4014 49.7149C35.0826 49.6325 35.977 48.56 36.0098 48.5169C38.1067 45.2929 41.2479 40.5243 45.4062 34.1643C45.5179 33.9975 45.684 33.8747 45.8761 33.8168C46.0682 33.7589 46.2745 33.7695 46.4597 33.8468C46.6449 33.9241 46.7975 34.0632 46.8916 34.2405C46.9856 34.4178 47.0151 34.6222 46.9751 34.8189L45.0331 44.236L50.2933 44.5644C50.8927 44.6018 51.2047 44.9072 50.831 45.5909C45.3634 53.8852 42.1875 58.7269 41.2734 60.1141C41.1067 60.3745 40.8117 60.5216 40.497 60.5019Z" fill="url(#paint5_linear_6_131)"/>
<path d="M64.3247 57.4285C62.7537 57.4285 61.3968 57.1875 60.2542 56.7054C59.1295 56.2234 58.219 55.5003 57.5227 54.5363L61.5664 50.7068C61.9771 51.2959 62.4145 51.7423 62.8786 52.0458C63.3607 52.3314 63.8784 52.4742 64.4319 52.4742C65.0389 52.4742 65.5298 52.2957 65.9047 51.9386C66.2975 51.5816 66.5564 51.0728 66.6813 50.4122L68.1542 43.021H61.7807L62.7447 38.2543H75.3579L73.0013 50.0373C72.6443 51.8405 72.0908 53.2866 71.341 54.3756C70.5912 55.4468 69.6271 56.2234 68.4488 56.7054C67.2883 57.1875 65.9137 57.4285 64.3247 57.4285ZM85.058 57.4285C83.112 57.4285 81.4249 57.0714 79.9967 56.3573C78.5863 55.6432 77.4883 54.6612 76.7028 53.4115C75.9351 52.144 75.5513 50.6889 75.5513 49.0464C75.5513 47.3861 75.8369 45.8775 76.4082 44.5207C76.9974 43.146 77.8186 41.9588 78.8719 40.959C79.9253 39.9592 81.175 39.1915 82.6211 38.656C84.0672 38.1025 85.6472 37.8258 87.3611 37.8258C89.3071 37.8258 90.9853 38.1828 92.3956 38.897C93.8239 39.6111 94.9219 40.6019 95.6895 41.8695C96.4751 43.1192 96.8678 44.5653 96.8678 46.2078C96.8678 47.8681 96.5733 49.3857 95.9841 50.7603C95.4128 52.1172 94.6005 53.2955 93.5472 54.2953C92.4938 55.295 91.2441 56.0716 89.798 56.6251C88.3519 57.1607 86.7719 57.4285 85.058 57.4285ZM85.5936 52.3136C86.3792 52.3136 87.0665 52.1618 87.6557 51.8583C88.2627 51.5548 88.7804 51.1353 89.2089 50.5997C89.6373 50.0641 89.9587 49.4571 90.1729 48.7787C90.3872 48.0824 90.4943 47.3504 90.4943 46.5827C90.4943 45.8507 90.3425 45.217 90.039 44.6814C89.7534 44.1279 89.3338 43.6995 88.7804 43.3959C88.2448 43.0924 87.5932 42.9407 86.8255 42.9407C86.0578 42.9407 85.3705 43.0924 84.7635 43.3959C84.1564 43.6995 83.6387 44.119 83.2102 44.6546C82.7818 45.1902 82.4604 45.8061 82.2462 46.5024C82.0319 47.1808 81.9248 47.9039 81.9248 48.6715C81.9248 49.3857 82.0676 50.0194 82.3533 50.5729C82.6568 51.1263 83.0763 51.5548 83.6119 51.8583C84.1654 52.1618 84.8259 52.3136 85.5936 52.3136ZM97.2068 57L100.956 38.2543H107.276L104.518 52.0993H112.98L111.989 57H97.2068ZM116.053 57L118.811 43.1549H113.322L114.312 38.2543H131.612L130.621 43.1549H125.131L122.373 57H116.053ZM137.645 45.217H146.001L145.09 49.7695H136.735L137.645 45.217ZM136.655 52.2332H146.054L145.09 57H129.504L133.254 38.2543H148.491L147.527 43.021H138.502L136.655 52.2332ZM158.074 57.4285C156.128 57.4285 154.441 57.0714 153.013 56.3573C151.603 55.6432 150.505 54.6612 149.719 53.4115C148.951 52.144 148.568 50.6889 148.568 49.0464C148.568 47.3861 148.853 45.8775 149.425 44.5207C150.014 43.146 150.835 41.9588 151.888 40.959C152.942 39.9592 154.191 39.1915 155.637 38.656C157.084 38.1025 158.664 37.8258 160.377 37.8258C162.323 37.8258 164.002 38.1828 165.412 38.897C166.84 39.6111 167.938 40.6019 168.706 41.8695C169.491 43.1192 169.884 44.5653 169.884 46.2078C169.884 47.8681 169.59 49.3857 169 50.7603C168.429 52.1172 167.617 53.2955 166.563 54.2953C165.51 55.295 164.26 56.0716 162.814 56.6251C161.368 57.1607 159.788 57.4285 158.074 57.4285ZM158.61 52.3136C159.395 52.3136 160.083 52.1618 160.672 51.8583C161.279 51.5548 161.797 51.1353 162.225 50.5997C162.654 50.0641 162.975 49.4571 163.189 48.7787C163.403 48.0824 163.511 47.3504 163.511 46.5827C163.511 45.8507 163.359 45.217 163.055 44.6814C162.77 44.1279 162.35 43.6995 161.797 43.3959C161.261 43.0924 160.609 42.9407 159.842 42.9407C159.074 42.9407 158.387 43.0924 157.78 43.3959C157.173 43.6995 156.655 44.119 156.227 44.6546C155.798 45.1902 155.477 45.8061 155.262 46.5024C155.048 47.1808 154.941 47.9039 154.941 48.6715C154.941 49.3857 155.084 50.0194 155.37 50.5729C155.673 51.1263 156.093 51.5548 156.628 51.8583C157.182 52.1618 157.842 52.3136 158.61 52.3136ZM170.223 57L173.972 38.2543H179.167L186.211 49.6624H184.015L186.291 38.2543H192.45L188.701 57H183.506L176.463 45.5919H178.659L176.382 57H170.223Z" fill="url(#paint6_linear_6_131)"/>
<defs>
<filter id="filter0_f_6_131" x="0.0529099" y="-1.85021" width="86.5702" height="97.9841" filterUnits="userSpaceOnUse" color-interpolation-filters="sRGB">
<feFlood flood-opacity="0" result="BackgroundImageFix"/>
<feBlend mode="normal" in="SourceGraphic" in2="BackgroundImageFix" result="shape"/>
<feGaussianBlur stdDeviation="17.8151" result="effect1_foregroundBlur_6_131"/>
</filter>
<filter id="filter1_f_6_131" x="26.586" y="24.6829" width="33.504" height="44.9178" filterUnits="userSpaceOnUse" color-interpolation-filters="sRGB">
<feFlood flood-opacity="0" result="BackgroundImageFix"/>
<feBlend mode="normal" in="SourceGraphic" in2="BackgroundImageFix" result="shape"/>
<feGaussianBlur stdDeviation="4.54854" result="effect1_foregroundBlur_6_131"/>
</filter>
<linearGradient id="paint0_linear_6_131" x1="43.3631" y1="37.231" x2="37.6033" y2="73.8226" gradientUnits="userSpaceOnUse">
<stop stop-color="#00EBFE"/>
<stop offset="0.572986" stop-color="#0077B6"/>
</linearGradient>
<linearGradient id="paint1_linear_6_131" x1="22.3382" y1="91.0685" x2="68.988" y2="86.5096" gradientUnits="userSpaceOnUse">
<stop stop-color="#EFD964"/>
<stop offset="1" stop-color="#FBD570"/>
</linearGradient>
<linearGradient id="paint2_linear_6_131" x1="43.3631" y1="37.231" x2="37.6033" y2="73.8226" gradientUnits="userSpaceOnUse">
<stop stop-color="#00EBFE"/>
<stop offset="0.572986" stop-color="#0077B6"/>
</linearGradient>
<linearGradient id="paint3_linear_6_131" x1="22.3382" y1="91.0685" x2="68.988" y2="86.5096" gradientUnits="userSpaceOnUse">
<stop stop-color="#EFD964"/>
<stop offset="1" stop-color="#FBD570"/>
</linearGradient>
<linearGradient id="paint4_linear_6_131" x1="43.3631" y1="37.231" x2="37.6033" y2="73.8226" gradientUnits="userSpaceOnUse">
<stop stop-color="#00EBFE"/>
<stop offset="0.572986" stop-color="#0077B6"/>
</linearGradient>
<linearGradient id="paint5_linear_6_131" x1="22.3382" y1="91.0685" x2="68.988" y2="86.5096" gradientUnits="userSpaceOnUse">
<stop stop-color="#EFD964"/>
<stop offset="1" stop-color="#FBD570"/>
</linearGradient>
<linearGradient id="paint6_linear_6_131" x1="59.0759" y1="47.8235" x2="192.077" y2="50.3755" gradientUnits="userSpaceOnUse">
<stop stop-color="white"/>
<stop offset="1" stop-color="#FFE040"/>
</linearGradient>
</defs>
</svg>
