<svg width="1440" height="900" viewBox="0 0 1440 900" fill="none" xmlns="http://www.w3.org/2000/svg">
<path d="M306.714 1172.64C316.512 1156.65 341.758 1129.91 348.242 1119.45M348.242 1119.45C309.256 1097.4 259.845 1067.89 208.63 1027.52C157.414 987.154 145.876 979.281 132.062 961.213C96.1066 920.244 94.204 916.571 87.7445 906.778M348.242 1119.45L403.083 1012.95M87.7445 906.778C83.6691 902.329 -208.492 747.133 -208.492 747.133L-439.106 626.722L-488.347 590.679M87.7445 906.778C130.538 889.482 174.398 892.486 234.136 895.755M-563.253 396.54L-566.014 460.508L-551.801 507.572M-146.109 628.556L-206.87 626.607L-282.237 561.175L-292.802 419.998L-88.3877 422.981L89.4527 425.576M-146.109 628.556L-107.677 656.687L43.6487 767.453C56.1747 775.793 127.197 811.412 149.672 827.462C172.148 843.511 185.247 849.83 242.149 895.152M-146.109 628.556L128.039 630.358M242.149 895.152L403.083 1012.95M242.149 895.152L234.136 895.755M403.083 1012.95C395.956 993.07 379.108 898.618 379.108 898.618M403.083 1012.95L819.099 1009.51M379.108 898.618L234.136 895.755M379.108 898.618L363.775 817.006M328.955 631.679L285.69 428.44M328.955 631.679L128.039 630.358M328.955 631.679L523.073 634.457M328.955 631.679L354.032 765.149M285.69 428.44L89.4527 425.576M285.69 428.44L222.15 139.971M285.69 428.44L484.868 431.988M128.039 630.358L89.4527 425.576M89.4527 425.576L41.0435 228.61L222.15 139.971M222.15 139.971L438.751 176.803L484.868 431.988M484.868 431.988L523.073 634.457M484.868 431.988L687.727 423.568M523.073 634.457L555.631 766.804M523.073 634.457L715.636 612.635M555.631 766.804L354.032 765.149M555.631 766.804L563.15 803.103M354.032 765.149L363.775 817.006M363.775 817.006L563.15 803.103M563.15 803.103L755.161 794.074M755.161 794.074L715.636 612.635M755.161 794.074L819.099 1009.51M715.636 612.635L687.727 423.568M687.727 423.568L673.771 373.759M819.099 1009.51L980.598 1017.74L1027.66 1194.43L842.9 1194.11M309.076 1181.7C217.797 1116.54 173.53 1083.98 102.504 1030.5L-291.212 836.159L-533.956 728.866L-553.559 608.935M-553.559 608.935L-488.347 590.679M-553.559 608.935L-537.588 554.636L-488.347 590.679M488.743 1082.12L770.07 1376.89L871.136 1373.15L842.9 1194.11M832.441 1127.79L842.9 1194.11" stroke="url(#paint0_linear_6_196)" stroke-opacity="0.3" stroke-width="6.57672"/>
<path d="M323.432 1146.31L222.017 1066.3M207.624 1026.76L226.7 988.228M99.5457 914.118L226.7 988.228M-14.1843 845.864L-31.4556 894.76L-156.201 810.112L-149.756 699.057L114.226 848.474M363.872 855.602L301.38 851.014L274.898 893.875L31.6404 706.619M188.422 935.255L193.062 941.676M226.7 988.228L193.062 941.676M362.833 1070.79L276.923 1011.4L221.567 925.026L193.062 941.676M396.175 941.742L545.325 932.238L524.593 871.299L383.313 871.64M386.093 842.623L474.092 843.727M103.639 710.843L88.5094 635.218M103.639 710.843L-40.3584 702.396M103.639 710.843L226.356 714.496M329.155 853.053L301.858 700.071M271.668 781.623L244.372 628.641M376.446 1030.88L331.64 1002.26M-266.814 577.96L-196.683 575.803M2.65217 509.593L13.7098 569.335L-126.552 573.647M2.65217 509.593L-152.747 511.333M2.65217 509.593C74.8683 485.674 30.9756 455.273 38.8094 467.929M2.65217 509.593L-54.4452 266.091M-152.747 511.333L-126.552 573.647M-152.747 511.333L-164.222 463.249M-126.552 573.647L-196.683 575.803M-196.683 575.803L-235.88 459.449L-164.222 463.249M-164.222 463.249L-71.2699 463.743L-57.7806 510.27M299.281 537.216C292.727 535.566 222.177 534.315 187.721 533.896L163.52 436.175L244.807 434.351L280.992 582.141M434.706 773.138L420.453 717.545M420.453 717.545L381.937 740.043L369.63 678.748L490.079 676.877L420.453 717.545ZM420.453 717.545L498.083 724.706M326.403 589.858L447.084 585.569M447.084 585.569L424.687 498.209L376.77 560.439M447.084 585.569L485.551 592.777L463.204 475.711L364.603 483.083L376.77 560.439M447.084 585.569L376.77 560.439M447.084 585.569L459.995 625.966M376.77 560.439L386.669 632.271C417.663 706.606 412.392 756.377 529.546 799.922M699.699 999.58C700.803 963.326 696.939 940.497 672.444 889.946L731.742 898.683C752.968 898.747 764.395 900.989 763.672 1003.3L699.699 999.58ZM699.699 999.58C613.233 849.931 577.349 811.126 529.546 799.922M529.546 799.922C560.553 748.939 606.943 731.887 626.262 729.734L660.923 835.041L683.004 838.123L651.859 739.893L737.036 726.666L940.478 792.74L923.291 928.332M923.291 928.332L916.249 987.232M923.291 928.332L993.281 942.237L1003.32 998.008L916.249 987.232M916.249 987.232C916.249 987.232 880.232 1012.83 841.814 975.922C803.396 939.01 825.435 898.744 825.435 898.744C840.048 889.047 856.058 900.2 916.249 987.232ZM689.266 1181.45L634.658 1021.59L978.924 1019.11L993.225 1045L387.694 1044.86L298.571 1172.24L598.149 1344.24L612.317 1313.14L397.186 1018.77M717.292 1443.58L735.68 1339.24L716.984 1286.24L763.274 1289.64M763.274 1289.64L793.363 1291.85L807.987 1328.97L778.5 1330.21L763.274 1289.64ZM857.154 1268.29C857.154 1268.29 887.982 1282.24 914.648 1266.67C941.313 1251.09 953.353 1198.4 953.353 1198.4L1015.52 1191.77C1015.52 1191.77 1050.33 1207.96 1027.42 1228.19C1004.5 1248.42 852.668 1227.54 852.668 1227.54M598.832 519.761L648.732 533.987M919.612 674.81L908.379 514.728L773.861 488.293L803.699 687.728L865.496 699.571L858.84 593.885L648.732 533.987M919.612 674.81L754.96 627.168L769.627 707.63L925.762 741.983L919.612 674.81ZM663.402 575.639L582.578 572.627L560.091 471.623L649.985 496.73M649.985 496.73L648.732 533.987M649.985 496.73L655.637 452.339L494.547 379.789M494.547 379.789L406.279 340.035L394.716 241.782L543.999 289.269L550.006 411.313L494.547 379.789ZM494.547 379.789L509.927 309.171L526.602 208.12L231.131 168.406L249.455 239.883L147.478 224.116M258.477 291.683L154.323 284.035L163.577 333.417L70.3471 328.52" stroke="url(#paint1_linear_6_196)" stroke-opacity="0.3" stroke-width="2.63069"/>
<g filter="url(#filter0_i_6_196)">
<path d="M-103.623 964.345C-613.916 734.7 -538.056 775.015 -785.172 687.419L-1103.33 873.256C-953.757 923.696 -584.743 1061.38 -540.066 1090.19C-495.39 1119.01 -142.187 1396.93 85.6294 1572.52L526.717 1929.87L813.662 1526.52C472.926 1315.64 292.104 1202.47 -103.623 964.345Z" fill="#FFE040" fill-opacity="0.35"/>
</g>
<path d="M111.583 1619.05L159.743 1653.79L578.269 2008.39L380.519 2115.02L-41.6665 1815.13L111.583 1619.05ZM111.583 1619.05L-179.035 1409.44L-192.321 1399.86M-346.764 1288.47L-589.223 1113.59L-681.047 1074.88M-346.764 1288.47L-423.512 1407.45L-420.072 1545.46L-302.852 1646.66L-268.787 1548.58L-229.343 1487.43L-192.321 1399.86M-346.764 1288.47L-192.321 1399.86M-681.047 1074.88L-967.999 953.885L-988.462 1204.4L-662.655 1359.46C-668.624 1275.66 -680.66 1101.43 -681.047 1074.88Z" stroke="url(#paint2_linear_6_196)" stroke-opacity="0.5" stroke-width="6.57672"/>
<path d="M746.217 794.145L365.148 815.842L402.393 1010.95L346.093 1116.88L282.4 1081.04" stroke="#FFE040" stroke-opacity="0.2" stroke-width="2.63069"/>
<defs>
<filter id="filter0_i_6_196" x="-1103.33" y="687.419" width="1916.99" height="1247.71" filterUnits="userSpaceOnUse" color-interpolation-filters="sRGB">
<feFlood flood-opacity="0" result="BackgroundImageFix"/>
<feBlend mode="normal" in="SourceGraphic" in2="BackgroundImageFix" result="shape"/>
<feColorMatrix in="SourceAlpha" type="matrix" values="0 0 0 0 0 0 0 0 0 0 0 0 0 0 0 0 0 0 127 0" result="hardAlpha"/>
<feOffset dy="5.26138"/>
<feGaussianBlur stdDeviation="2.63069"/>
<feComposite in2="hardAlpha" operator="arithmetic" k2="-1" k3="1"/>
<feColorMatrix type="matrix" values="0 0 0 0 0 0 0 0 0 0 0 0 0 0 0 0 0 0 0.25 0"/>
<feBlend mode="normal" in2="shape" result="effect1_innerShadow_6_196"/>
</filter>
<linearGradient id="paint0_linear_6_196" x1="-28.9362" y1="1098.53" x2="573.526" y2="275.454" gradientUnits="userSpaceOnUse">
<stop stop-color="#FFE040"/>
<stop offset="1" stop-color="#FFE040" stop-opacity="0"/>
</linearGradient>
<linearGradient id="paint1_linear_6_196" x1="43.1257" y1="1057.79" x2="833.507" y2="421.695" gradientUnits="userSpaceOnUse">
<stop stop-color="#FFE040"/>
<stop offset="1" stop-color="#FFE040" stop-opacity="0"/>
</linearGradient>
<linearGradient id="paint2_linear_6_196" x1="-314.543" y1="1666.67" x2="-143.318" y2="1401.22" gradientUnits="userSpaceOnUse">
<stop stop-color="#FFE040" stop-opacity="0"/>
<stop offset="1" stop-color="#FFE040"/>
</linearGradient>
</defs>
</svg>
