<svg width="283" height="152" viewBox="0 0 283 152" fill="none" xmlns="http://www.w3.org/2000/svg">
<g opacity="0.7" filter="url(#filter0_f_2_27)">
<path d="M48.4544 96.8426C47.6477 96.7923 47.07 96.0389 47.2356 95.2394L50.2225 80.7558L42.1553 80.2521C40.127 80.1255 41.5027 78.476 41.5531 78.4097C44.7782 73.4511 49.6094 66.117 56.0049 56.3352C56.1766 56.0788 56.432 55.8899 56.7275 55.8009C57.023 55.7118 57.3403 55.7281 57.6251 55.8469C57.91 55.9658 58.1447 56.1798 58.2893 56.4525C58.4339 56.7252 58.4793 57.0396 58.4178 57.342L55.431 71.8255L63.5212 72.3307C64.4431 72.3883 64.9229 72.8579 64.3481 73.9095C55.9389 86.6661 51.0545 94.1126 49.6486 96.2462C49.3922 96.6466 48.9384 96.8728 48.4544 96.8426Z" fill="url(#paint0_linear_2_27)"/>
<path d="M48.4544 96.8426C47.6477 96.7923 47.07 96.0389 47.2356 95.2394L50.2225 80.7558L42.1553 80.2521C40.127 80.1255 41.5027 78.476 41.5531 78.4097C44.7782 73.4511 49.6094 66.117 56.0049 56.3352C56.1766 56.0788 56.432 55.8899 56.7275 55.8009C57.023 55.7118 57.3403 55.7281 57.6251 55.8469C57.91 55.9658 58.1447 56.1798 58.2893 56.4525C58.4339 56.7252 58.4793 57.0396 58.4178 57.342L55.431 71.8255L63.5212 72.3307C64.4431 72.3883 64.9229 72.8579 64.3481 73.9095C55.9389 86.6661 51.0545 94.1126 49.6486 96.2462C49.3922 96.6466 48.9384 96.8728 48.4544 96.8426Z" fill="url(#paint1_linear_2_27)"/>
</g>
<g filter="url(#filter1_f_2_27)">
<path d="M48.4544 96.8426C47.6477 96.7923 47.07 96.0389 47.2356 95.2394L50.2225 80.7558L42.1553 80.2521C40.127 80.1255 41.5027 78.476 41.5531 78.4097C44.7782 73.4511 49.6094 66.117 56.0049 56.3352C56.1766 56.0788 56.432 55.8899 56.7275 55.8009C57.023 55.7118 57.3403 55.7281 57.6251 55.8469C57.91 55.9658 58.1447 56.1798 58.2893 56.4525C58.4339 56.7252 58.4793 57.0396 58.4178 57.342L55.431 71.8255L63.5212 72.3307C64.4431 72.3883 64.9229 72.8579 64.3481 73.9095C55.9389 86.6661 51.0545 94.1126 49.6486 96.2462C49.3922 96.6466 48.9384 96.8728 48.4544 96.8426Z" fill="url(#paint2_linear_2_27)"/>
<path d="M48.4544 96.8426C47.6477 96.7923 47.07 96.0389 47.2356 95.2394L50.2225 80.7558L42.1553 80.2521C40.127 80.1255 41.5027 78.476 41.5531 78.4097C44.7782 73.4511 49.6094 66.117 56.0049 56.3352C56.1766 56.0788 56.432 55.8899 56.7275 55.8009C57.023 55.7118 57.3403 55.7281 57.6251 55.8469C57.91 55.9658 58.1447 56.1798 58.2893 56.4525C58.4339 56.7252 58.4793 57.0396 58.4178 57.342L55.431 71.8255L63.5212 72.3307C64.4431 72.3883 64.9229 72.8579 64.3481 73.9095C55.9389 86.6661 51.0545 94.1126 49.6486 96.2462C49.3922 96.6466 48.9384 96.8728 48.4544 96.8426Z" fill="url(#paint3_linear_2_27)"/>
</g>
<path d="M48.4544 96.8426C47.6477 96.7923 47.07 96.0389 47.2356 95.2394L50.2225 80.7558L42.1553 80.2521C40.127 80.1255 41.5027 78.476 41.5531 78.4097C44.7782 73.4511 49.6094 66.117 56.0049 56.3352C56.1766 56.0788 56.432 55.8899 56.7275 55.8009C57.023 55.7118 57.3403 55.7281 57.6251 55.8469C57.91 55.9658 58.1447 56.1798 58.2893 56.4525C58.4339 56.7252 58.4793 57.0396 58.4178 57.342L55.431 71.8255L63.5212 72.3307C64.4431 72.3883 64.9229 72.8579 64.3481 73.9095C55.9389 86.6661 51.0545 94.1126 49.6486 96.2462C49.3922 96.6466 48.9384 96.8728 48.4544 96.8426Z" fill="url(#paint4_linear_2_27)"/>
<path d="M48.4544 96.8426C47.6477 96.7923 47.07 96.0389 47.2356 95.2394L50.2225 80.7558L42.1553 80.2521C40.127 80.1255 41.5027 78.476 41.5531 78.4097C44.7782 73.4511 49.6094 66.117 56.0049 56.3352C56.1766 56.0788 56.432 55.8899 56.7275 55.8009C57.023 55.7118 57.3403 55.7281 57.6251 55.8469C57.91 55.9658 58.1447 56.1798 58.2893 56.4525C58.4339 56.7252 58.4793 57.0396 58.4178 57.342L55.431 71.8255L63.5212 72.3307C64.4431 72.3883 64.9229 72.8579 64.3481 73.9095C55.9389 86.6661 51.0545 94.1126 49.6486 96.2462C49.3922 96.6466 48.9384 96.8728 48.4544 96.8426Z" fill="url(#paint5_linear_2_27)"/>
<path d="M85.1016 92.1276C82.6852 92.1276 80.5984 91.7569 78.8411 91.0155C77.1112 90.2742 75.7109 89.1621 74.64 87.6794L80.8593 81.7896C81.4908 82.6957 82.1635 83.3822 82.8774 83.849C83.6188 84.2883 84.4151 84.508 85.2663 84.508C86.1999 84.508 86.955 84.2334 87.5316 83.6842C88.1357 83.1351 88.5338 82.3525 88.726 81.3366L90.9913 69.9689H81.1888L82.6715 62.6376H102.071L98.4462 80.7599C97.897 83.5332 97.0458 85.7573 95.8926 87.4323C94.7394 89.0797 93.2566 90.2742 91.4444 91.0155C89.6596 91.7569 87.5453 92.1276 85.1016 92.1276ZM116.989 92.1276C113.997 92.1276 111.402 91.5784 109.205 90.4801C107.036 89.3818 105.347 87.8716 104.139 85.9495C102.958 84 102.368 81.7622 102.368 79.236C102.368 76.6824 102.807 74.3622 103.686 72.2754C104.592 70.1611 105.855 68.3351 107.475 66.7975C109.095 65.2598 111.017 64.0791 113.241 63.2554C115.466 62.4042 117.896 61.9786 120.532 61.9786C123.524 61.9786 126.106 62.5277 128.275 63.6261C130.471 64.7244 132.16 66.2483 133.341 68.1978C134.549 70.1199 135.153 72.344 135.153 74.8702C135.153 77.4238 134.7 79.7577 133.794 81.872C132.915 83.9588 131.666 85.771 130.046 87.3087C128.426 88.8463 126.504 90.0408 124.28 90.892C122.055 91.7157 119.625 92.1276 116.989 92.1276ZM117.813 84.2608C119.021 84.2608 120.078 84.0274 120.985 83.5607C121.918 83.0939 122.714 82.4486 123.373 81.6249C124.032 80.8011 124.527 79.8675 124.856 78.8241C125.186 77.7533 125.35 76.6275 125.35 75.4468C125.35 74.321 125.117 73.3462 124.65 72.5225C124.211 71.6713 123.566 71.0123 122.714 70.5455C121.891 70.0787 120.888 69.8453 119.708 69.8453C118.527 69.8453 117.47 70.0787 116.536 70.5455C115.603 71.0123 114.807 71.6576 114.148 72.4813C113.489 73.3051 112.994 74.2524 112.665 75.3232C112.335 76.3666 112.171 77.4787 112.171 78.6594C112.171 79.7577 112.39 80.7325 112.83 81.5837C113.296 82.4349 113.942 83.0939 114.765 83.5607C115.617 84.0274 116.632 84.2608 117.813 84.2608ZM135.674 91.4686L141.44 62.6376H151.161L146.918 83.9313H159.934L158.41 91.4686H135.674ZM164.66 91.4686L168.902 70.1748H160.459L161.983 62.6376H188.59L187.066 70.1748H178.623L174.38 91.4686H164.66ZM197.869 73.3462H210.72L209.319 80.3481H196.469L197.869 73.3462ZM196.345 84.1373H210.802L209.319 91.4686H185.348L191.114 62.6376H214.55L213.067 69.9689H199.187L196.345 84.1373ZM229.289 92.1276C226.296 92.1276 223.701 91.5784 221.504 90.4801C219.335 89.3818 217.647 87.8716 216.438 85.9495C215.258 84 214.667 81.7622 214.667 79.236C214.667 76.6824 215.107 74.3622 215.985 72.2754C216.892 70.1611 218.155 68.3351 219.775 66.7975C221.395 65.2598 223.317 64.0791 225.541 63.2554C227.765 62.4042 230.195 61.9786 232.831 61.9786C235.824 61.9786 238.405 62.5277 240.574 63.6261C242.771 64.7244 244.459 66.2483 245.64 68.1978C246.848 70.1199 247.452 72.344 247.452 74.8702C247.452 77.4238 246.999 79.7577 246.093 81.872C245.215 83.9588 243.965 85.771 242.345 87.3087C240.725 88.8463 238.803 90.0408 236.579 90.892C234.355 91.7157 231.925 92.1276 229.289 92.1276ZM230.113 84.2608C231.321 84.2608 232.378 84.0274 233.284 83.5607C234.218 83.0939 235.014 82.4486 235.673 81.6249C236.332 80.8011 236.826 79.8675 237.156 78.8241C237.485 77.7533 237.65 76.6275 237.65 75.4468C237.65 74.321 237.416 73.3462 236.95 72.5225C236.51 71.6713 235.865 71.0123 235.014 70.5455C234.19 70.0787 233.188 69.8453 232.007 69.8453C230.827 69.8453 229.769 70.0787 228.836 70.5455C227.902 71.0123 227.106 71.6576 226.447 72.4813C225.788 73.3051 225.294 74.2524 224.964 75.3232C224.635 76.3666 224.47 77.4787 224.47 78.6594C224.47 79.7577 224.69 80.7325 225.129 81.5837C225.596 82.4349 226.241 83.0939 227.065 83.5607C227.916 84.0274 228.932 84.2608 230.113 84.2608ZM247.974 91.4686L253.74 62.6376H261.73L272.562 80.1833H269.185L272.686 62.6376H282.159L276.393 91.4686H268.403L257.57 73.9229H260.948L257.447 91.4686H247.974Z" fill="url(#paint6_linear_2_27)"/>
<defs>
<filter id="filter0_f_2_27" x="-13.7487" y="0.944813" width="133.145" height="150.7" filterUnits="userSpaceOnUse" color-interpolation-filters="sRGB">
<feFlood flood-opacity="0" result="BackgroundImageFix"/>
<feBlend mode="normal" in="SourceGraphic" in2="BackgroundImageFix" result="shape"/>
<feGaussianBlur stdDeviation="27.3997" result="effect1_foregroundBlur_2_27"/>
</filter>
<filter id="filter1_f_2_27" x="27.0593" y="41.7529" width="51.5292" height="69.0838" filterUnits="userSpaceOnUse" color-interpolation-filters="sRGB">
<feFlood flood-opacity="0" result="BackgroundImageFix"/>
<feBlend mode="normal" in="SourceGraphic" in2="BackgroundImageFix" result="shape"/>
<feGaussianBlur stdDeviation="6.99567" result="effect1_foregroundBlur_2_27"/>
</filter>
<linearGradient id="paint0_linear_2_27" x1="52.8625" y1="61.0519" x2="44.004" y2="117.33" gradientUnits="userSpaceOnUse">
<stop stop-color="#00EBFE"/>
<stop offset="0.572986" stop-color="#0077B6"/>
</linearGradient>
<linearGradient id="paint1_linear_2_27" x1="20.5261" y1="143.854" x2="92.2738" y2="136.843" gradientUnits="userSpaceOnUse">
<stop stop-color="#EFD964"/>
<stop offset="1" stop-color="#FBD570"/>
</linearGradient>
<linearGradient id="paint2_linear_2_27" x1="52.8625" y1="61.0519" x2="44.004" y2="117.33" gradientUnits="userSpaceOnUse">
<stop stop-color="#00EBFE"/>
<stop offset="0.572986" stop-color="#0077B6"/>
</linearGradient>
<linearGradient id="paint3_linear_2_27" x1="20.5261" y1="143.854" x2="92.2738" y2="136.843" gradientUnits="userSpaceOnUse">
<stop stop-color="#EFD964"/>
<stop offset="1" stop-color="#FBD570"/>
</linearGradient>
<linearGradient id="paint4_linear_2_27" x1="52.8625" y1="61.0519" x2="44.004" y2="117.33" gradientUnits="userSpaceOnUse">
<stop stop-color="#00EBFE"/>
<stop offset="0.572986" stop-color="#0077B6"/>
</linearGradient>
<linearGradient id="paint5_linear_2_27" x1="20.5261" y1="143.854" x2="92.2738" y2="136.843" gradientUnits="userSpaceOnUse">
<stop stop-color="#EFD964"/>
<stop offset="1" stop-color="#FBD570"/>
</linearGradient>
<linearGradient id="paint6_linear_2_27" x1="77.0289" y1="76.9588" x2="281.028" y2="80.9214" gradientUnits="userSpaceOnUse">
<stop stop-color="white"/>
<stop offset="1" stop-color="#FFE040"/>
</linearGradient>
</defs>
</svg>
