<svg width="179" height="92" viewBox="0 0 179 92" fill="none" xmlns="http://www.w3.org/2000/svg">
<g opacity="0.7" filter="url(#filter0_f_2_82)">
<path d="M38.0659 58.1883C37.5825 58.1581 37.2364 57.7067 37.3356 57.2276L39.1253 48.5491L34.2915 48.2472C33.0761 48.1713 33.9004 47.1829 33.9306 47.1432C35.8631 44.172 38.758 39.7774 42.5902 33.9161C42.6931 33.7625 42.8461 33.6493 43.0232 33.5959C43.2003 33.5426 43.3904 33.5523 43.561 33.6235C43.7317 33.6948 43.8724 33.823 43.959 33.9864C44.0456 34.1498 44.0729 34.3382 44.036 34.5194L42.2463 43.198L47.094 43.5007C47.6464 43.5352 47.9339 43.8165 47.5895 44.4467C42.5507 52.0905 39.6239 56.5525 38.7815 57.8309C38.6278 58.0709 38.3559 58.2064 38.0659 58.1883Z" fill="url(#paint0_linear_2_82)"/>
<path d="M38.0659 58.1883C37.5825 58.1581 37.2364 57.7067 37.3356 57.2276L39.1253 48.5491L34.2915 48.2472C33.0761 48.1713 33.9004 47.1829 33.9306 47.1432C35.8631 44.172 38.758 39.7774 42.5902 33.9161C42.6931 33.7625 42.8461 33.6493 43.0232 33.5959C43.2003 33.5426 43.3904 33.5523 43.561 33.6235C43.7317 33.6948 43.8724 33.823 43.959 33.9864C44.0456 34.1498 44.0729 34.3382 44.036 34.5194L42.2463 43.198L47.094 43.5007C47.6464 43.5352 47.9339 43.8165 47.5895 44.4467C42.5507 52.0905 39.6239 56.5525 38.7815 57.8309C38.6278 58.0709 38.3559 58.2064 38.0659 58.1883Z" fill="url(#paint1_linear_2_82)"/>
</g>
<g filter="url(#filter1_f_2_82)">
<path d="M38.0659 58.1883C37.5825 58.1581 37.2364 57.7067 37.3356 57.2276L39.1253 48.5491L34.2915 48.2472C33.0761 48.1713 33.9004 47.1829 33.9306 47.1432C35.8631 44.172 38.758 39.7774 42.5902 33.9161C42.6931 33.7625 42.8461 33.6493 43.0232 33.5959C43.2003 33.5426 43.3904 33.5523 43.561 33.6235C43.7317 33.6948 43.8724 33.823 43.959 33.9864C44.0456 34.1498 44.0729 34.3382 44.036 34.5194L42.2463 43.198L47.094 43.5007C47.6464 43.5352 47.9339 43.8165 47.5895 44.4467C42.5507 52.0905 39.6239 56.5525 38.7815 57.8309C38.6278 58.0709 38.3559 58.2064 38.0659 58.1883Z" fill="url(#paint2_linear_2_82)"/>
<path d="M38.0659 58.1883C37.5825 58.1581 37.2364 57.7067 37.3356 57.2276L39.1253 48.5491L34.2915 48.2472C33.0761 48.1713 33.9004 47.1829 33.9306 47.1432C35.8631 44.172 38.758 39.7774 42.5902 33.9161C42.6931 33.7625 42.8461 33.6493 43.0232 33.5959C43.2003 33.5426 43.3904 33.5523 43.561 33.6235C43.7317 33.6948 43.8724 33.823 43.959 33.9864C44.0456 34.1498 44.0729 34.3382 44.036 34.5194L42.2463 43.198L47.094 43.5007C47.6464 43.5352 47.9339 43.8165 47.5895 44.4467C42.5507 52.0905 39.6239 56.5525 38.7815 57.8309C38.6278 58.0709 38.3559 58.2064 38.0659 58.1883Z" fill="url(#paint3_linear_2_82)"/>
</g>
<path d="M38.0659 58.1883C37.5825 58.1581 37.2364 57.7067 37.3356 57.2276L39.1253 48.5491L34.2915 48.2472C33.0761 48.1713 33.9004 47.1829 33.9306 47.1432C35.8631 44.172 38.758 39.7774 42.5902 33.9161C42.6931 33.7625 42.8461 33.6493 43.0232 33.5959C43.2003 33.5426 43.3904 33.5523 43.561 33.6235C43.7317 33.6948 43.8724 33.823 43.959 33.9864C44.0456 34.1498 44.0729 34.3382 44.036 34.5194L42.2463 43.198L47.094 43.5007C47.6464 43.5352 47.9339 43.8165 47.5895 44.4467C42.5507 52.0905 39.6239 56.5525 38.7815 57.8309C38.6278 58.0709 38.3559 58.2064 38.0659 58.1883Z" fill="url(#paint4_linear_2_82)"/>
<path d="M38.0659 58.1883C37.5825 58.1581 37.2364 57.7067 37.3356 57.2276L39.1253 48.5491L34.2915 48.2472C33.0761 48.1713 33.9004 47.1829 33.9306 47.1432C35.8631 44.172 38.758 39.7774 42.5902 33.9161C42.6931 33.7625 42.8461 33.6493 43.0232 33.5959C43.2003 33.5426 43.3904 33.5523 43.561 33.6235C43.7317 33.6948 43.8724 33.823 43.959 33.9864C44.0456 34.1498 44.0729 34.3382 44.036 34.5194L42.2463 43.198L47.094 43.5007C47.6464 43.5352 47.9339 43.8165 47.5895 44.4467C42.5507 52.0905 39.6239 56.5525 38.7815 57.8309C38.6278 58.0709 38.3559 58.2064 38.0659 58.1883Z" fill="url(#paint5_linear_2_82)"/>
<path d="M60.0251 55.3949C58.5772 55.3949 57.3268 55.1728 56.2738 54.7285C55.2372 54.2843 54.3981 53.6179 53.7565 52.7295L57.4831 49.2003C57.8615 49.7433 58.2646 50.1546 58.6924 50.4343C59.1366 50.6975 59.6137 50.8292 60.1238 50.8292C60.6832 50.8292 61.1356 50.6646 61.4811 50.3356C61.8431 50.0065 62.0817 49.5376 62.1969 48.9288L63.5542 42.1173H57.6805L58.569 37.7243H70.193L68.0212 48.5833C67.6922 50.2451 67.1821 51.5778 66.4911 52.5814C65.8001 53.5686 64.9116 54.2843 63.8257 54.7285C62.7563 55.1728 61.4894 55.3949 60.0251 55.3949ZM79.1324 55.3949C77.339 55.3949 75.7842 55.0658 74.468 54.4077C73.1682 53.7496 72.1563 52.8447 71.4324 51.6929C70.7249 50.5248 70.3712 49.1839 70.3712 47.6702C70.3712 46.14 70.6344 44.7498 71.1609 43.4993C71.7039 42.2325 72.4607 41.1383 73.4314 40.217C74.4022 39.2956 75.5539 38.5881 76.8866 38.0945C78.2193 37.5845 79.6754 37.3295 81.2549 37.3295C83.0482 37.3295 84.5948 37.6585 85.8946 38.3166C87.2109 38.9748 88.2227 39.8879 88.9302 41.0561C89.6541 42.2078 90.0161 43.5405 90.0161 45.0541C90.0161 46.5843 89.7446 47.9828 89.2017 49.2497C88.6752 50.5001 87.9266 51.586 86.9558 52.5074C85.9851 53.4287 84.8334 54.1444 83.5007 54.6545C82.168 55.1481 80.7119 55.3949 79.1324 55.3949ZM79.626 50.6811C80.3499 50.6811 80.9834 50.5412 81.5263 50.2615C82.0857 49.9818 82.5629 49.5952 82.9577 49.1016C83.3526 48.608 83.6488 48.0486 83.8462 47.4234C84.0436 46.7817 84.1424 46.1071 84.1424 45.3997C84.1424 44.7251 84.0025 44.141 83.7228 43.6474C83.4596 43.1374 83.0729 42.7425 82.5629 42.4628C82.0693 42.1831 81.4687 42.0432 80.7613 42.0432C80.0538 42.0432 79.4203 42.1831 78.8609 42.4628C78.3015 42.7425 77.8244 43.1291 77.4295 43.6227C77.0347 44.1163 76.7385 44.684 76.5411 45.3256C76.3436 45.9508 76.2449 46.6172 76.2449 47.3247C76.2449 47.9828 76.3765 48.5669 76.6398 49.0769C76.9195 49.587 77.3061 49.9818 77.7997 50.2615C78.3098 50.5412 78.9185 50.6811 79.626 50.6811ZM90.3284 55L93.7836 37.7243H99.6079L97.066 50.4836H104.865L103.952 55H90.3284ZM107.697 55L110.239 42.2407H105.18L106.093 37.7243H122.036L121.123 42.2407H116.063L113.521 55H107.697ZM127.596 44.141H135.296L134.457 48.3365H126.757L127.596 44.141ZM126.683 50.607H135.345L134.457 55H120.093L123.548 37.7243H137.591L136.703 42.1173H128.386L126.683 50.607ZM146.423 55.3949C144.629 55.3949 143.075 55.0658 141.758 54.4077C140.458 53.7496 139.447 52.8447 138.723 51.6929C138.015 50.5248 137.661 49.1839 137.661 47.6702C137.661 46.14 137.925 44.7498 138.451 43.4993C138.994 42.2325 139.751 41.1383 140.722 40.217C141.692 39.2956 142.844 38.5881 144.177 38.0945C145.51 37.5845 146.966 37.3295 148.545 37.3295C150.339 37.3295 151.885 37.6585 153.185 38.3166C154.501 38.9748 155.513 39.8879 156.22 41.0561C156.944 42.2078 157.306 43.5405 157.306 45.0541C157.306 46.5843 157.035 47.9828 156.492 49.2497C155.965 50.5001 155.217 51.586 154.246 52.5074C153.275 53.4287 152.124 54.1444 150.791 54.6545C149.458 55.1481 148.002 55.3949 146.423 55.3949ZM146.916 50.6811C147.64 50.6811 148.274 50.5412 148.817 50.2615C149.376 49.9818 149.853 49.5952 150.248 49.1016C150.643 48.608 150.939 48.0486 151.137 47.4234C151.334 46.7817 151.433 46.1071 151.433 45.3997C151.433 44.7251 151.293 44.141 151.013 43.6474C150.75 43.1374 150.363 42.7425 149.853 42.4628C149.36 42.1831 148.759 42.0432 148.052 42.0432C147.344 42.0432 146.711 42.1831 146.151 42.4628C145.592 42.7425 145.115 43.1291 144.72 43.6227C144.325 44.1163 144.029 44.684 143.831 45.3256C143.634 45.9508 143.535 46.6172 143.535 47.3247C143.535 47.9828 143.667 48.5669 143.93 49.0769C144.21 49.587 144.596 49.9818 145.09 50.2615C145.6 50.5412 146.209 50.6811 146.916 50.6811ZM157.619 55L161.074 37.7243H165.862L172.352 48.2378H170.329L172.426 37.7243H178.103L174.648 55H169.86L163.369 44.4865H165.393L163.295 55H157.619Z" fill="url(#paint6_linear_2_82)"/>
<defs>
<filter id="filter0_f_2_82" x="0.793518" y="0.725941" width="79.7813" height="90.3" filterUnits="userSpaceOnUse" color-interpolation-filters="sRGB">
<feFlood flood-opacity="0" result="BackgroundImageFix"/>
<feBlend mode="normal" in="SourceGraphic" in2="BackgroundImageFix" result="shape"/>
<feGaussianBlur stdDeviation="16.418" result="effect1_foregroundBlur_2_82"/>
</filter>
<filter id="filter1_f_2_82" x="25.2459" y="25.1783" width="30.8765" height="41.3953" filterUnits="userSpaceOnUse" color-interpolation-filters="sRGB">
<feFlood flood-opacity="0" result="BackgroundImageFix"/>
<feBlend mode="normal" in="SourceGraphic" in2="BackgroundImageFix" result="shape"/>
<feGaussianBlur stdDeviation="4.19183" result="effect1_foregroundBlur_2_82"/>
</filter>
<linearGradient id="paint0_linear_2_82" x1="40.7073" y1="36.7424" x2="35.3992" y2="70.4644" gradientUnits="userSpaceOnUse">
<stop stop-color="#00EBFE"/>
<stop offset="0.572986" stop-color="#0077B6"/>
</linearGradient>
<linearGradient id="paint1_linear_2_82" x1="21.3311" y1="86.3578" x2="64.3226" y2="82.1565" gradientUnits="userSpaceOnUse">
<stop stop-color="#EFD964"/>
<stop offset="1" stop-color="#FBD570"/>
</linearGradient>
<linearGradient id="paint2_linear_2_82" x1="40.7073" y1="36.7424" x2="35.3992" y2="70.4644" gradientUnits="userSpaceOnUse">
<stop stop-color="#00EBFE"/>
<stop offset="0.572986" stop-color="#0077B6"/>
</linearGradient>
<linearGradient id="paint3_linear_2_82" x1="21.3311" y1="86.3578" x2="64.3226" y2="82.1565" gradientUnits="userSpaceOnUse">
<stop stop-color="#EFD964"/>
<stop offset="1" stop-color="#FBD570"/>
</linearGradient>
<linearGradient id="paint4_linear_2_82" x1="40.7073" y1="36.7424" x2="35.3992" y2="70.4644" gradientUnits="userSpaceOnUse">
<stop stop-color="#00EBFE"/>
<stop offset="0.572986" stop-color="#0077B6"/>
</linearGradient>
<linearGradient id="paint5_linear_2_82" x1="21.3311" y1="86.3578" x2="64.3226" y2="82.1565" gradientUnits="userSpaceOnUse">
<stop stop-color="#EFD964"/>
<stop offset="1" stop-color="#FBD570"/>
</linearGradient>
<linearGradient id="paint6_linear_2_82" x1="55.1879" y1="46.2941" x2="178.187" y2="48.695" gradientUnits="userSpaceOnUse">
<stop stop-color="white"/>
<stop offset="1" stop-color="#FFE040"/>
</linearGradient>
</defs>
</svg>
